
<svg version="1.0" xmlns="http://www.w3.org/2000/svg"
 width="595.000000pt" height="419.000000pt" viewBox="0 0 595.000000 419.000000"
 preserveAspectRatio="xMidYMid meet">
<metadata>
Created by potrace 1.16, written by Peter Selinger 2001-2019
</metadata>
<g transform="translate(0.000000,419.000000) scale(0.100000,-0.100000)"
fill="#000000" stroke="none">
<path d="M2436 2330 c-48 -26 -98 -57 -109 -69 -30 -30 -14 -68 46 -105 l47
-29 38 25 c46 31 91 111 99 178 5 45 4 50 -13 49 -10 0 -59 -22 -108 -49z"/>
<path d="M2871 2314 c-25 -32 -36 -99 -27 -171 8 -67 20 -91 51 -103 63 -24
95 27 95 150 0 109 -22 150 -80 150 -10 0 -28 -12 -39 -26z m79 -23 c5 -11 10
-60 10 -110 0 -68 -4 -93 -16 -105 -25 -25 -44 -19 -61 21 -18 44 -14 173 7
198 17 21 47 19 60 -4z"/>
<path d="M3040 2191 c0 -94 4 -151 10 -151 6 0 10 43 10 108 0 123 5 121 51
-15 20 -60 36 -93 45 -93 12 0 14 24 12 145 -3 170 -21 199 -26 43 l-4 -103
-36 104 c-53 150 -62 144 -62 -38z"/>
<path d="M3350 2190 c0 -127 2 -150 15 -150 12 0 15 14 15 68 l1 67 35 -67
c19 -38 41 -68 49 -68 20 0 20 1 -16 72 l-31 62 26 19 c21 15 26 27 26 60 0
23 -4 47 -8 54 -10 15 -57 33 -88 33 l-24 0 0 -150z"/>
<path d="M3547 2322 c-25 -28 -37 -69 -37 -130 0 -78 16 -129 47 -149 23 -15
28 -15 52 -2 14 8 31 26 38 39 16 31 17 166 2 209 -18 50 -71 68 -102 33z m73
-31 c5 -11 10 -60 10 -109 0 -76 -3 -92 -20 -107 -24 -22 -47 -14 -61 22 -14
38 -8 176 10 196 18 23 48 21 61 -2z"/>
<path d="M4041 2268 c-19 -41 -35 -98 -38 -130 -5 -51 -3 -59 20 -82 31 -31
47 -32 78 -8 18 15 23 29 23 71 1 44 -3 56 -23 72 -14 12 -31 17 -43 13 -17
-5 -16 0 7 53 32 70 33 74 19 80 -6 2 -25 -29 -43 -69z"/>
<path d="M4208 2330 c-57 -34 -52 -271 6 -293 25 -10 56 5 71 34 18 34 20 200
4 232 -20 37 -47 46 -81 27z m63 -62 c12 -47 6 -156 -11 -188 -6 -11 -17 -20
-25 -20 -26 0 -39 43 -39 125 0 87 13 125 44 125 14 0 22 -11 31 -42z"/>
<path d="M2166 2128 c6 -21 6 -21 -11 -4 -13 13 -21 14 -29 6 -8 -8 -7 -13 3
-19 8 -5 -5 -7 -33 -4 -30 4 -46 2 -46 -5 0 -7 13 -10 33 -7 l32 5 -29 -10
c-21 -6 -34 -6 -43 2 -7 6 -16 8 -19 5 -5 -5 26 -24 101 -65 30 -17 8 -14 -24
3 -26 13 -31 12 -61 -10 -40 -29 -89 -107 -72 -113 7 -2 12 -10 12 -18 0 -9 4
-12 10 -9 6 3 7 -1 4 -9 -3 -9 -1 -16 6 -16 6 0 8 -4 5 -10 -3 -5 -1 -10 5
-10 6 0 8 -5 4 -12 -14 -22 159 77 182 105 21 25 24 39 24 108 0 44 -4 78 -8
75 -5 -3 -15 4 -22 15 -19 26 -33 24 -24 -3z"/>
<path d="M2281 2018 c-1 -43 8 -70 20 -62 5 3 6 -1 3 -9 -3 -9 6 -23 23 -35
37 -26 503 -275 507 -271 2 2 -4 28 -12 57 -12 42 -21 56 -46 69 -30 15 -30
15 -16 -2 14 -17 14 -17 -7 -7 -26 14 -36 15 -29 3 8 -13 -44 -20 -72 -10 -21
8 -22 11 -11 26 12 15 12 16 -4 10 -11 -4 -16 -3 -12 3 3 6 -1 10 -9 10 -9 0
-16 4 -16 9 0 9 -38 24 -55 22 -5 -1 -1 6 9 14 26 20 2 19 -29 -1 -19 -12 -28
-14 -38 -5 -8 6 -18 7 -22 3 -5 -4 -5 -2 -2 5 4 6 1 14 -5 17 -7 3 -2 3 11 0
14 -4 21 -2 17 4 -11 18 43 23 74 7 17 -9 30 -13 30 -10 0 5 -87 50 -126 65
-38 15 -28 2 13 -15 20 -8 34 -18 31 -21 -7 -7 -97 34 -121 55 -16 13 -18 13
-15 1 2 -8 8 -18 13 -22 6 -4 2 -8 -8 -8 -12 0 -16 -4 -11 -12 5 -9 2 -9 -9 1
-19 15 -23 26 -5 15 8 -5 9 0 6 14 -4 14 -1 25 9 31 11 6 12 10 4 15 -6 4 -11
3 -11 -2 0 -5 -9 -12 -21 -15 -20 -5 -20 -5 -2 15 18 21 18 21 -3 10 -21 -11
-31 -1 -47 48 -3 8 -6 -2 -6 -22z"/>
</g>
</svg>
